<?xml version="1.0" encoding="utf-8"?>
<!-- Generator: Adobe Illustrator 16.0.0, SVG Export Plug-In . SVG Version: 6.00 Build 0)  -->
<!DOCTYPE svg PUBLIC "-//W3C//DTD SVG 1.1//EN" "http://www.w3.org/Graphics/SVG/1.1/DTD/svg11.dtd">
<svg version="1.1" id="Layer_1" xmlns="http://www.w3.org/2000/svg" xmlns:xlink="http://www.w3.org/1999/xlink" x="0px" y="0px"
	 width="185.959px" height="184.043px" viewBox="0 0 185.959 184.043" enable-background="new 0 0 185.959 184.043"
	 xml:space="preserve">
<g>
	<g>
		<circle fill-rule="evenodd" clip-rule="evenodd" fill="#65A5A0" cx="93" cy="83.852" r="83.662"/>
		<circle fill-rule="evenodd" clip-rule="evenodd" fill="#FFFFFF" cx="93" cy="83.852" r="72.847"/>
	</g>
	<g>
		<path fill="#FAA627" d="M136.348,75.754c0.078-6.21,0.357-41.997-3.594-42.714c-4.123-0.75-18.477,20.845-19.812,22.871
			c-5.898-2.307-12.426-3.6-19.301-3.6s-13.402,1.293-19.301,3.6C73.003,53.884,58.651,32.29,54.527,33.04
			c-3.951,0.718-3.672,36.504-3.594,42.714c-3.061,5.512-4.783,11.702-4.783,18.247c0,23.024,21.262,41.69,47.491,41.69
			c26.229,0,47.49-18.666,47.49-41.69C141.131,87.456,139.41,81.266,136.348,75.754z"/>
		<ellipse fill="#51311D" cx="116.354" cy="86.725" rx="2.36" ry="4.523"/>
		<ellipse fill="#51311D" cx="70.928" cy="86.725" rx="2.36" ry="4.523"/>
		<path fill="#FBC250" d="M104.26,117.009c0,3.802-4.754,4.523-10.619,4.523s-10.619-0.722-10.619-4.523
			c0-3.801,4.754-6.883,10.619-6.883S104.26,113.208,104.26,117.009z"/>
		<g>
			<path fill="#FFD250" d="M104.85,94.787c-4.912,0-9.153,2.4-11.209,5.885c-2.056-3.484-6.297-5.885-11.209-5.885
				c-6.924,0-12.537,4.755-12.537,10.619c0,5.865,5.613,10.619,12.537,10.619c4.912,0,9.153-2.398,11.209-5.885
				c2.056,3.486,6.297,5.885,11.209,5.885c6.924,0,12.537-4.754,12.537-10.619C117.387,99.542,111.773,94.787,104.85,94.787z"/>
		</g>
		<path fill="#51311D" d="M93.641,96.754c0,0-4.009,0-6.044,1.967l6.044,6.686l6.044-6.686
			C97.649,96.754,93.641,96.754,93.641,96.754z"/>
		<g>
			<g>
				<g>
					<path fill="#51311D" d="M113.342,103.44c-0.268,0-0.51-0.183-0.574-0.454c-0.074-0.317,0.121-0.635,0.439-0.71l14.945-3.54
						c0.314-0.074,0.635,0.121,0.709,0.438c0.076,0.318-0.121,0.636-0.438,0.711l-14.945,3.539
						C113.433,103.436,113.387,103.44,113.342,103.44z"/>
				</g>
				<g>
					<path fill="#51311D" d="M129.395,107.795c-0.019,0-0.037-0.002-0.057-0.003l-15.288-1.483c-0.324-0.031-0.562-0.32-0.53-0.644
						c0.031-0.325,0.314-0.562,0.645-0.53l15.287,1.482c0.324,0.032,0.562,0.32,0.53,0.645
						C129.952,107.566,129.695,107.795,129.395,107.795z"/>
				</g>
				<g>
					<path fill="#51311D" d="M127.888,115.623c-0.081,0-0.164-0.018-0.243-0.053l-13.986-6.348c-0.296-0.135-0.428-0.484-0.293-0.78
						c0.135-0.298,0.484-0.431,0.781-0.294l13.985,6.347c0.297,0.135,0.429,0.484,0.294,0.78
						C128.326,115.494,128.112,115.623,127.888,115.623z"/>
				</g>
			</g>
			<g>
				<g>
					<path fill="#51311D" d="M73.939,103.44c-0.045,0-0.09-0.005-0.136-0.017l-14.945-3.539c-0.316-0.075-0.513-0.393-0.438-0.711
						c0.075-0.316,0.393-0.512,0.71-0.438l14.945,3.54c0.317,0.075,0.514,0.393,0.438,0.71
						C74.449,103.258,74.207,103.44,73.939,103.44z"/>
				</g>
				<g>
					<path fill="#51311D" d="M57.886,107.795c-0.3,0-0.557-0.229-0.586-0.533c-0.032-0.324,0.206-0.612,0.53-0.645l15.287-1.482
						c0.327-0.031,0.612,0.205,0.645,0.53c0.032,0.323-0.206,0.612-0.53,0.644l-15.288,1.483
						C57.924,107.793,57.905,107.795,57.886,107.795z"/>
				</g>
				<g>
					<path fill="#51311D" d="M59.394,115.623c-0.225,0-0.439-0.129-0.539-0.348c-0.134-0.296-0.003-0.646,0.294-0.78l13.986-6.347
						c0.296-0.135,0.646-0.004,0.781,0.294c0.135,0.296,0.003,0.646-0.293,0.78l-13.987,6.348
						C59.558,115.605,59.475,115.623,59.394,115.623z"/>
				</g>
			</g>
		</g>
	</g>
	<g>
		<polygon fill-rule="evenodd" clip-rule="evenodd" fill="#F05753" points="185.959,141.982 0.041,141.982 9.833,163.014 
			0.041,184.043 185.959,184.043 176.166,163.014 		"/>
		<g>
			<text transform="matrix(1 0 0 1 25.5825 172.7192)" fill="#FFD250" font-family="'Quicksand-Bold'" font-size="27.7981">VET</text>
			<text transform="matrix(1 0 0 1 84.063 172.7192)" fill="#FFFFFF" font-family="'Quicksand-Bold'" font-size="27.7167">CLINIC</text>
		</g>
	</g>
</g>
</svg>
