<?xml version="1.0" encoding="utf-8"?>
<!-- Generator: Adobe Illustrator 16.0.0, SVG Export Plug-In . SVG Version: 6.00 Build 0)  -->
<!DOCTYPE svg PUBLIC "-//W3C//DTD SVG 1.1//EN" "http://www.w3.org/Graphics/SVG/1.1/DTD/svg11.dtd">
<svg version="1.1" id="Layer_1" xmlns="http://www.w3.org/2000/svg" xmlns:xlink="http://www.w3.org/1999/xlink" x="0px" y="0px"
	 width="185.959px" height="184.043px" viewBox="0 0 185.959 184.043" enable-background="new 0 0 185.959 184.043"
	 xml:space="preserve">
<g>
	<g>
		<circle fill-rule="evenodd" clip-rule="evenodd" fill="#65A5A0" cx="93" cy="83.852" r="83.662"/>
		<circle fill-rule="evenodd" clip-rule="evenodd" fill="#FFFFFF" cx="93" cy="83.852" r="72.847"/>
	</g>
	<g>
		<path fill="#FAA627" d="M136.348,75.754c0.078-6.21,0.357-41.997-3.594-42.714c-4.123-0.75-18.477,20.845-19.812,22.871
			c-5.898-2.307-12.426-3.6-19.301-3.6s-13.402,1.293-19.301,3.6C73.003,53.884,58.651,32.29,54.527,33.04
			c-3.951,0.718-3.672,36.504-3.594,42.714c-3.061,5.512-4.783,11.702-4.783,18.247c0,23.024,21.262,41.69,47.491,41.69
			c26.229,0,47.49-18.666,47.49-41.69C141.131,87.456,139.41,81.266,136.348,75.754z"/>
		<ellipse fill="#51311D" cx="116.354" cy="86.725" rx="2.36" ry="4.523"/>
		<ellipse fill="#51311D" cx="70.928" cy="86.725" rx="2.36" ry="4.523"/>
		<path fill="#FBC250" d="M104.26,117.009c0,3.802-4.754,4.523-10.619,4.523s-10.619-0.722-10.619-4.523
			c0-3.801,4.754-6.883,10.619-6.883S104.26,113.208,104.26,117.009z"/>
		<g>
			<path fill="#FFD250" d="M104.85,94.787c-4.912,0-9.153,2.4-11.209,5.885c-2.056-3.484-6.297-5.885-11.209-5.885
				c-6.924,0-12.537,4.755-12.537,10.619c0,5.865,5.613,10.619,12.537,10.619c4.912,0,9.153-2.398,11.209-5.885
				c2.056,3.486,6.297,5.885,11.209,5.885c6.924,0,12.537-4.754,12.537-10.619C117.387,99.542,111.773,94.787,104.85,94.787z"/>
		</g>
		<path fill="#51311D" d="M93.641,96.754c0,0-4.009,0-6.044,1.967l6.044,6.686l6.044-6.686
			C97.649,96.754,93.641,96.754,93.641,96.754z"/>
		<g>
			<g>
				<g>
					<path fill="#51311D" d="M113.342,103.44c-0.268,0-0.51-0.183-0.574-0.454c-0.074-0.317,0.121-0.635,0.439-0.71l14.945-3.54
						c0.314-0.074,0.635,0.121,0.709,0.438c0.076,0.318-0.121,0.636-0.438,0.711l-14.945,3.539
						C113.433,103.436,113.387,103.44,113.342,103.44z"/>
				</g>
				<g>
					<path fill="#51311D" d="M129.395,107.795c-0.019,0-0.037-0.002-0.057-0.003l-15.288-1.483c-0.324-0.031-0.562-0.32-0.53-0.644
						c0.031-0.325,0.314-0.562,0.645-0.53l15.287,1.482c0.324,0.032,0.562,0.32,0.53,0.645
						C129.952,107.566,129.695,107.795,129.395,107.795z"/>
				</g>
				<g>
					<path fill="#51311D" d="M127.888,115.623c-0.081,0-0.164-0.018-0.243-0.053l-13.986-6.348c-0.296-0.135-0.428-0.484-0.293-0.78
						c0.135-0.298,0.484-0.431,0.781-0.294l13.985,6.347c0.297,0.135,0.429,0.484,0.294,0.78
						C128.326,115.494,128.112,115.623,127.888,115.623z"/>
				</g>
			</g>
			<g>
				<g>
					<path fill="#51311D" d="M73.939,103.44c-0.045,0-0.09-0.005-0.136-0.017l-14.945-3.539c-0.316-0.075-0.513-0.393-0.438-0.711
						c0.075-0.316,0.393-0.512,0.71-0.438l14.945,3.54c0.317,0.075,0.514,0.393,0.438,0.71
						C74.449,103.258,74.207,103.44,73.939,103.44z"/>
				</g>
				<g>
					<path fill="#51311D" d="M57.886,107.795c-0.3,0-0.557-0.229-0.586-0.533c-0.032-0.324,0.206-0.612,0.53-0.645l15.287-1.482
						c0.327-0.031,0.612,0.205,0.645,0.53c0.032,0.323-0.206,0.612-0.53,0.644l-15.288,1.483
						C57.924,107.793,57.905,107.795,57.886,107.795z"/>
				</g>
				<g>
					<path fill="#51311D" d="M59.394,115.623c-0.225,0-0.439-0.129-0.539-0.348c-0.134-0.296-0.003-0.646,0.294-0.78l13.986-6.347
						c0.296-0.135,0.646-0.004,0.781,0.294c0.135,0.296,0.003,0.646-0.293,0.78l-13.987,6.348
						C59.558,115.605,59.475,115.623,59.394,115.623z"/>
				</g>
			</g>
		</g>
	</g>
	<g>
		<polygon fill-rule="evenodd" clip-rule="evenodd" fill="#F05753" points="185.959,141.982 0.041,141.982 9.833,163.014 
			0.041,184.043 185.959,184.043 176.166,163.014 		"/>
		<g>
			<g>
				<path fill="#FFD250" d="M31.588,172.719l-6.116-18.738h2.613l2.919,9.23c0.807,2.53,1.501,4.811,2.002,7.006h0.056
					c0.528-2.168,1.307-4.531,2.141-6.979l3.169-9.258h2.585l-6.7,18.738H31.588z"/>
				<path fill="#FFD250" d="M52.687,163.934h-7.284v6.756h8.118v2.029H42.984V153.98h10.12v2.03h-7.701v5.921h7.284V163.934z"/>
				<path fill="#FFD250" d="M60.664,156.038h-5.699v-2.058h13.873v2.058h-5.727v16.681h-2.447V156.038z"/>
			</g>
			<g>
				<path fill="#FFFFFF" d="M99.221,172.109c-0.887,0.443-2.66,0.887-4.933,0.887c-5.265,0-9.228-3.325-9.228-9.449
					c0-5.847,3.962-9.809,9.754-9.809c2.328,0,3.797,0.498,4.434,0.831l-0.582,1.968c-0.914-0.443-2.217-0.776-3.769-0.776
					c-4.378,0-7.288,2.799-7.288,7.703c0,4.572,2.632,7.51,7.177,7.51c1.469,0,2.965-0.305,3.935-0.776L99.221,172.109z"/>
				<path fill="#FFFFFF" d="M102.244,154.043h2.41v16.653h7.98v2.022h-10.391V154.043z"/>
				<path fill="#FFFFFF" d="M117.736,154.043v18.676h-2.41v-18.676H117.736z"/>
				<path fill="#FFFFFF" d="M121.95,172.719v-18.676h2.632l5.986,9.449c1.385,2.188,2.466,4.156,3.353,6.068l0.056-0.027
					c-0.222-2.494-0.277-4.767-0.277-7.676v-7.814h2.272v18.676h-2.438l-5.93-9.477c-1.303-2.078-2.55-4.212-3.492-6.234
					l-0.083,0.027c0.139,2.355,0.194,4.6,0.194,7.703v7.98H121.95z"/>
				<path fill="#FFFFFF" d="M142.598,154.043v18.676h-2.41v-18.676H142.598z"/>
				<path fill="#FFFFFF" d="M159.863,172.109c-0.887,0.443-2.66,0.887-4.932,0.887c-5.266,0-9.229-3.325-9.229-9.449
					c0-5.847,3.963-9.809,9.754-9.809c2.328,0,3.797,0.498,4.434,0.831l-0.582,1.968c-0.914-0.443-2.217-0.776-3.768-0.776
					c-4.379,0-7.288,2.799-7.288,7.703c0,4.572,2.632,7.51,7.177,7.51c1.469,0,2.965-0.305,3.936-0.776L159.863,172.109z"/>
			</g>
		</g>
	</g>
</g>
</svg>
